<?xml version="1.0" encoding="iso-8859-1"?>
<!-- Generator: Adobe Illustrator 16.0.0, SVG Export Plug-In . SVG Version: 6.00 Build 0)  -->
<!DOCTYPE svg PUBLIC "-//W3C//DTD SVG 1.1//EN" "http://www.w3.org/Graphics/SVG/1.1/DTD/svg11.dtd">
<svg version="1.1" id="Capa_1" xmlns="http://www.w3.org/2000/svg" xmlns:xlink="http://www.w3.org/1999/xlink" x="0px" y="0px"
	 width="392.135px" height="392.135px" viewBox="0 0 392.135 392.135" style="enable-background:new 0 0 392.135 392.135;"
	 xml:space="preserve">
<g>
	<g>
		<path d="M196.071,0C87.956,0,0.003,87.953,0.003,196.068c0,108.116,87.953,196.067,196.068,196.067
			c108.108,0,196.061-87.951,196.061-196.067C392.132,87.953,304.179,0,196.071,0z M196.071,365.322
			c-93.328,0-169.256-75.928-169.256-169.254c0-93.328,75.928-169.256,169.256-169.256c93.327,0,169.249,75.928,169.249,169.256
			C365.319,289.395,289.397,365.322,196.071,365.322z"/>
		<path d="M335.587,182.662H56.555c-7.404,0-13.406,6.002-13.406,13.406c0,84.32,68.596,152.922,152.922,152.922
			c84.321,0,152.922-68.603,152.922-152.922C348.993,188.664,342.985,182.662,335.587,182.662z M196.071,322.178
			c-65.01,0-118.688-49.449-125.402-112.703h250.805C314.759,272.729,261.081,322.178,196.071,322.178z"/>
		<path d="M123.842,153.957c21.51,0,39.008-17.498,39.008-39.008c0-21.51-17.498-39.008-39.008-39.008
			c-21.504,0-39.002,17.498-39.002,39.008C84.84,136.459,102.338,153.957,123.842,153.957z M123.842,102.754
			c6.723,0,12.195,5.473,12.195,12.195c0,6.722-5.473,12.195-12.195,12.195c-6.722,0-12.189-5.473-12.189-12.195
			C111.653,108.227,117.12,102.754,123.842,102.754z"/>
		<path d="M268.294,153.957c21.51,0,39.008-17.498,39.008-39.008c0-21.51-17.498-39.008-39.008-39.008
			c-21.504,0-39.002,17.498-39.002,39.008C229.292,136.459,246.79,153.957,268.294,153.957z M268.294,102.754
			c6.723,0,12.195,5.473,12.195,12.195c0,6.722-5.473,12.195-12.195,12.195s-12.189-5.473-12.189-12.195
			C256.104,108.227,261.571,102.754,268.294,102.754z"/>
	</g>
</g>
<g>
</g>
<g>
</g>
<g>
</g>
<g>
</g>
<g>
</g>
<g>
</g>
<g>
</g>
<g>
</g>
<g>
</g>
<g>
</g>
<g>
</g>
<g>
</g>
<g>
</g>
<g>
</g>
<g>
</g>
</svg>
