<svg xmlns="http://www.w3.org/2000/svg" xmlns:xlink="http://www.w3.org/1999/xlink" version="1.1" width="1000" height="1000" viewBox="0 0 1000 1000" xml:space="preserve">
<desc>Created with Fabric.js 3.5.0</desc>
<defs>
</defs>
<rect x="0" y="0" width="100%" height="100%" fill="#ffffff"/>
<g transform="matrix(1.6752 0 0 1.6752 499.9947 499.9947)" id="878350">
<g style="" vector-effect="non-scaling-stroke">
		<g transform="matrix(1 0 0 1 0 -124.8045)" id="Capa_1">
<path style="stroke: none; stroke-width: 1; stroke-dasharray: none; stroke-linecap: butt; stroke-dashoffset: 0; stroke-linejoin: miter; stroke-miterlimit: 4; is-custom-font: none; font-file-url: none; fill: rgb(0,0,0); fill-rule: nonzero; opacity: 1;" transform=" translate(-235, -110.1955)" d="M 20 105.122 v 30.073 c 0 4.142 3.358 7.5 7.5 7.5 H 30 v 42.5 c 0 4.142 3.358 7.5 7.5 7.5 h 395 c 4.142 0 7.5 -3.358 7.5 -7.5 v -42.5 h 2.5 c 4.142 0 7.5 -3.358 7.5 -7.5 v -30.073 c 0 -0.033 0 -29.927 0 -29.927 c 0 -4.142 -3.358 -7.5 -7.5 -7.5 s -7.5 3.358 -7.5 7.5 v 20.917 L 242.5 59.004 V 35.196 c 0 -4.142 -3.358 -7.5 -7.5 -7.5 s -7.5 3.358 -7.5 7.5 v 23.808 L 35 96.112 V 75.196 c 0 -4.142 -3.358 -7.5 -7.5 -7.5 s -7.5 3.358 -7.5 7.5 C 20 75.196 20 105.089 20 105.122 z M 425 177.695 H 45 v -35 h 380 V 177.695 z M 235 72.834 l 200 38.554 v 16.308 h -2.49 c -0.019 0 -395 0 -395 0 c -0.019 0 -2.51 0 -2.51 0 v -16.308 L 235 72.834 z" stroke-linecap="round"/>
</g>
		<g transform="matrix(1 0 0 1 0 89.9995)" id="Capa_1">
<path style="stroke: none; stroke-width: 1; stroke-dasharray: none; stroke-linecap: butt; stroke-dashoffset: 0; stroke-linejoin: miter; stroke-miterlimit: 4; is-custom-font: none; font-file-url: none; fill: rgb(0,0,0); fill-rule: nonzero; opacity: 1;" transform=" translate(-235, -324.9995)" d="M 462.5 397.304 H 450 v -22.5 c 0 -4.142 -3.358 -7.5 -7.5 -7.5 H 420 V 222.695 h 2.5 c 4.142 0 7.5 -3.358 7.5 -7.5 s -3.358 -7.5 -7.5 -7.5 h -50 c -4.142 0 -7.5 3.358 -7.5 7.5 s 3.358 7.5 7.5 7.5 h 2.5 v 144.609 h -36.25 V 222.695 h 2.5 c 4.142 0 7.5 -3.358 7.5 -7.5 s -3.358 -7.5 -7.5 -7.5 h -50 c -4.142 0 -7.5 3.358 -7.5 7.5 s 3.358 7.5 7.5 7.5 h 2.5 v 144.609 H 257.5 V 222.695 h 2.5 c 4.142 0 7.5 -3.358 7.5 -7.5 s -3.358 -7.5 -7.5 -7.5 h -50 c -4.142 0 -7.5 3.358 -7.5 7.5 s 3.358 7.5 7.5 7.5 h 2.5 v 144.609 h -36.25 V 222.695 h 2.5 c 4.142 0 7.5 -3.358 7.5 -7.5 s -3.358 -7.5 -7.5 -7.5 h -50 c -4.142 0 -7.5 3.358 -7.5 7.5 s 3.358 7.5 7.5 7.5 h 2.5 v 144.609 H 95 V 222.695 h 2.5 c 4.142 0 7.5 -3.358 7.5 -7.5 s -3.358 -7.5 -7.5 -7.5 h -50 c -4.142 0 -7.5 3.358 -7.5 7.5 s 3.358 7.5 7.5 7.5 H 50 v 144.609 H 27.5 c -4.142 0 -7.5 3.358 -7.5 7.5 v 22.5 H 7.5 c -4.142 0 -7.5 3.358 -7.5 7.5 v 30 c 0 4.142 3.358 7.5 7.5 7.5 h 455 c 4.142 0 7.5 -3.358 7.5 -7.5 v -30 C 470 400.662 466.642 397.304 462.5 397.304 z M 390 222.695 h 15 v 144.609 h -15 V 222.695 z M 308.75 222.695 h 15 v 144.609 h -15 V 222.695 z M 227.5 222.695 h 15 v 144.609 h -15 V 222.695 z M 146.25 222.695 h 15 v 144.609 h -15 V 222.695 z M 65 222.695 h 15 v 144.609 H 65 V 222.695 z M 455 427.304 H 15 v -15 h 72.5 c 4.142 0 7.5 -3.358 7.5 -7.5 s -3.358 -7.5 -7.5 -7.5 H 35 v -15 h 400 v 15 H 117.5 c -4.142 0 -7.5 3.358 -7.5 7.5 s 3.358 7.5 7.5 7.5 H 455 V 427.304 z" stroke-linecap="round"/>
</g>
</g>
</g>
</svg>