<svg xmlns="http://www.w3.org/2000/svg" viewBox="0 0 58.19 58.19"><defs><style>.cls-1{fill:#231f20;}.cls-2{fill:#e0683d;}.cls-3{fill:#659204;}.cls-4{fill:#cacac9;}.cls-5{fill:#f9aa00;}</style></defs><g id="Layer_2" data-name="Layer 2"><g id="Layer_1-2" data-name="Layer 1"><path class="cls-1" d="M53.65,0H4.55A4.55,4.55,0,0,0,0,4.55v49.1a4.55,4.55,0,0,0,4.55,4.54h49.1a4.54,4.54,0,0,0,4.54-4.54V4.55A4.55,4.55,0,0,0,53.65,0Zm2.72,4.55V28.19H30V1.82H53.65a2.72,2.72,0,0,1,2.72,2.73ZM4.55,1.82H28.19V28.19H1.82V4.55A2.73,2.73,0,0,1,4.55,1.82ZM1.82,53.65V30H28.19V56.37H4.55a2.72,2.72,0,0,1-2.73-2.72Zm51.83,2.72H30V30H56.37V53.65a2.72,2.72,0,0,1-2.72,2.72Z"/><path class="cls-2" d="M5.46,16.37h8.18v8.18a.91.91,0,0,0,1.82,0V16.37h8.18a.91.91,0,0,0,0-1.82H15.46V6.37a.91.91,0,0,0-1.82,0v8.18H5.46a.91.91,0,0,0,0,1.82Z"/><path class="cls-3" d="M34.55,16.37H52.74a.91.91,0,0,0,0-1.82H34.55a.91.91,0,0,0,0,1.82Z"/><path class="cls-4" d="M50.65,36.64a.89.89,0,0,0-1.28,0l-5.73,5.72-5.72-5.72a.91.91,0,0,0-1.28,1.28l5.72,5.72-5.72,5.73a.88.88,0,0,0-.28.64.91.91,0,0,0,.92.92.88.88,0,0,0,.64-.28l5.72-5.72,5.73,5.72a.91.91,0,0,0,1.28-1.28l-5.72-5.73,5.72-5.72a.89.89,0,0,0,0-1.28Z"/><path class="cls-5" d="M21.33,36.86a.92.92,0,0,0-1.29,0L7.54,49.37a.88.88,0,0,0-.28.64.91.91,0,0,0,.27.65.89.89,0,0,0,.65.27.9.9,0,0,0,.65-.28l12.5-12.5a.92.92,0,0,0,0-1.29Z"/><path class="cls-5" d="M19.55,44.55a3.18,3.18,0,1,0,3.18,3.19,3.14,3.14,0,0,0-.93-2.25,3.19,3.19,0,0,0-2.25-.94Zm0,4.55a1.36,1.36,0,1,1,1.36-1.36,1.36,1.36,0,0,1-1.36,1.36Z"/><path class="cls-5" d="M10.46,41.83a3.19,3.19,0,1,0-3.19-3.19,3.2,3.2,0,0,0,3.19,3.19Zm0-4.55a1.36,1.36,0,1,1-.53,2.62,1.36,1.36,0,0,1,.53-2.62Z"/></g></g></svg>